<?xml version="1.0" standalone="no"?><!DOCTYPE svg PUBLIC "-//W3C//DTD SVG 1.1//EN" "http://www.w3.org/Graphics/SVG/1.1/DTD/svg11.dtd"><svg t="1769947114168" class="icon" viewBox="0 0 1024 1024" version="1.1" xmlns="http://www.w3.org/2000/svg" p-id="7637" data-darkreader-inline-fill="" xmlns:xlink="http://www.w3.org/1999/xlink" width="200" height="200"><path d="M662.570667 0m0 150.570667l0 180.736q0 150.570667-150.570667 150.570666l-0.042667 0q-150.570667 0-150.570666-150.570666l0-180.736q0-150.570667 150.570666-150.570667l0.042667 0q150.570667 0 150.570667 150.570667Z" fill="#FFBF00" p-id="7638" style="--darkreader-inline-fill: var(--darkreader-background-ffbf00, #997300);" data-darkreader-inline-fill=""></path><path d="M980.527741 256.471678m-106.469539 106.469539l-127.799652 127.799651q-106.469539 106.469539-212.939078 0l-0.03017-0.03017q-106.469539-106.469539 0-212.939079l127.799651-127.799651q106.469539-106.469539 212.939079 0l0.03017 0.03017q106.469539 106.469539 0 212.939079Z" fill="#80FF00" p-id="7639" style="--darkreader-inline-fill: var(--darkreader-background-80ff00, #80cc00);" data-darkreader-inline-fill=""></path><path d="M1024 662.570667m-150.570667 0l-180.736 0q-150.570667 0-150.570666-150.570667l0-0.042667q0-150.570667 150.570666-150.570666l180.736 0q150.570667 0 150.570667 150.570666l0 0.042667q0 150.570667-150.570667 150.570667Z" fill="#00FF40" p-id="7640" style="--darkreader-inline-fill: var(--darkreader-background-00ff40, #00cc59);" data-darkreader-inline-fill=""></path><path d="M767.558492 980.497571m-106.469539-106.469539l-127.799651-127.799651q-106.469539-106.469539 0-212.939079l0.03017-0.03017q106.469539-106.469539 212.939078 0l127.799652 127.799651q106.469539 106.469539 0 212.939079l-0.03017 0.03017q-106.469539 106.469539-212.939079 0Z" fill="#00FFFF" p-id="7641" style="--darkreader-inline-fill: var(--darkreader-background-00ffff, #00cccc);" data-darkreader-inline-fill=""></path><path d="M361.429333 1024m0-150.570667l0-180.736q0-150.570667 150.570667-150.570666l0.042667 0q150.570667 0 150.570666 150.570666l0 180.736q0 150.570667-150.570666 150.570667l-0.042667 0q-150.570667 0-150.570667-150.570667Z" fill="#0040FF" p-id="7642" style="--darkreader-inline-fill: var(--darkreader-background-0040ff, #0033cc);" data-darkreader-inline-fill=""></path><path d="M43.502429 767.558492m106.469539-106.469539l127.799651-127.799651q106.469539-106.469539 212.939079 0l0.03017 0.03017q106.469539 106.469539 0 212.939078l-127.799651 127.799652q-106.469539 106.469539-212.939079 0l-0.03017-0.03017q-106.469539-106.469539 0-212.939079Z" fill="#8000FF" p-id="7643" style="--darkreader-inline-fill: var(--darkreader-background-8000ff, #6600cc);" data-darkreader-inline-fill=""></path><path d="M0 361.429333m150.570667 0l180.736 0q150.570667 0 150.570666 150.570667l0 0.042667q0 150.570667-150.570666 150.570666l-180.736 0q-150.570667 0-150.570667-150.570666l0-0.042667q0-150.570667 150.570667-150.570667Z" fill="#FF00BF" p-id="7644" style="--darkreader-inline-fill: var(--darkreader-background-ff00bf, #cc0099);" data-darkreader-inline-fill=""></path><path d="M256.471678 43.472259m106.469539 106.469539l127.799651 127.799652q106.469539 106.469539 0 212.939078l-0.03017 0.03017q-106.469539 106.469539-212.939079 0l-127.799651-127.799651q-106.469539-106.469539 0-212.939079l0.03017-0.03017q106.469539-106.469539 212.939079 0Z" fill="#FF0000" p-id="7645" style="--darkreader-inline-fill: var(--darkreader-background-ff0000, #cc0000);" data-darkreader-inline-fill=""></path></svg>
